<?xml version="1.0" encoding="utf-8"?>
<!-- Generator: Adobe Illustrator 30.1.0, SVG Export Plug-In . SVG Version: 9.03 Build 0)  -->
<svg version="1.1" id="Vrstva_1" xmlns="http://www.w3.org/2000/svg" xmlns:xlink="http://www.w3.org/1999/xlink" x="0px" y="0px"
	 width="64px" height="64px" viewBox="0 0 64 64" style="enable-background:new 0 0 64 64;" xml:space="preserve">
<rect style="fill:#F2ECE1;" width="64" height="64"/>
<g>
	<path style="fill:#6E7973;" d="M32,48.2924194c10.0673828,0,12.3330078-8.8046875,12.3330078-11.8886719V7.4022827h-4.4462891
		v27.6489258c0,2.8759766-0.7734375,4.9902344-2.3203125,6.3408203s-3.8457031,2.0263672-6.8955078,2.0263672
		c-1.3076172,0-2.5493164-0.1416016-3.7260742-0.4248047s-2.2875977-0.7080078-3.3334961-1.2753906L22.3037109,30.934021h-3.3173828
		v13.0078125C19.9785156,44.8920288,24.0859375,48.2924194,32,48.2924194z"/>
	<path style="fill:#6E7973;" d="M46.3330078,7.4022827v29.0014648c0,3.6035156-2.6328125,13.8886719-14.3330078,13.8886719
		c-10.1362305,0-14.5893555-5.0791016-14.7739258-5.2949219l-0.2397461-0.2802734V30.934021h-3.703125v16.7333984
		c2.6577148,2.265625,5.4033203,3.921875,8.2363281,4.9677734c2.8320312,1.0449219,5.9482422,1.5683594,9.347168,1.5683594
		c4.0532227,0,7.5708008-0.7626953,10.5571289-2.2880859c2.984375-1.5244141,5.2832031-3.703125,6.8964844-6.5361328
		c1.6113281-2.8320312,2.4179688-6.1875,2.4179688-10.0664062V7.4022827H46.3330078z"/>
</g>
</svg>
